<?xml version="1.0" encoding="UTF-8" standalone="no"?>
<!-- Created with Inkscape (http://www.inkscape.org/) -->

<svg
   width="300"
   height="300"
   viewBox="0 0 79.374996 79.375002"
   version="1.1"
   id="svg1"
   xml:space="preserve"
   inkscape:version="1.3.2 (091e20e, 2023-11-25, custom)"
   sodipodi:docname="výkres.svg"
   xmlns:inkscape="http://www.inkscape.org/namespaces/inkscape"
   xmlns:sodipodi="http://sodipodi.sourceforge.net/DTD/sodipodi-0.dtd"
   xmlns="http://www.w3.org/2000/svg"
   xmlns:svg="http://www.w3.org/2000/svg"><sodipodi:namedview
     id="namedview1"
     pagecolor="#000000"
     bordercolor="#ffffff"
     borderopacity="0.25"
     inkscape:showpageshadow="2"
     inkscape:pageopacity="0.0"
     inkscape:pagecheckerboard="0"
     inkscape:deskcolor="#d1d1d1"
     inkscape:document-units="mm"
     inkscape:zoom="2.9255612"
     inkscape:cx="195.34714"
     inkscape:cy="151.25303"
     inkscape:window-width="1920"
     inkscape:window-height="1017"
     inkscape:window-x="-8"
     inkscape:window-y="-8"
     inkscape:window-maximized="1"
     inkscape:current-layer="layer3" /><defs
     id="defs1" /><g
     inkscape:groupmode="layer"
     id="layer3"
     inkscape:label="Vrstva 2"><path
       style="fill:none;stroke:#000000;stroke-width:1.0911674;stroke-linecap:round;stroke-linejoin:round;stroke-opacity:1"
       d="M 56.445908,38.44075 C 49.624469,36.493068 42.110744,34.673874 41.110864,25.825385 l -6.679275,7.140476 c 1.752246,2.779675 3.311451,4.559947 4.62067,5.396507 4.220714,2.696931 18.943815,7.520674 22.411424,11.56599 9.065845,10.576236 2.040107,18.923838 1.351721,19.976952 l 2.211852,1.848772 C 71.127408,66.888553 76.868986,57.320961 71.274559,49.082671 69.334445,46.225681 64.038339,40.608569 56.445908,38.44075 M 24.704805,41.409804 C 34.667292,52.8183 43.977847,64.200431 54.996028,74.449602 l -3.560209,0.548223 C 46.93651,75.444515 42.070261,74.195115 38.60144,70.433311 35.562255,67.137427 33.924077,62.219993 36.011774,57.1714 c -1.30151,1.238422 -2.688651,2.258778 -2.533575,7.206443 1.833112,13.855057 15.457243,13.504743 19.926569,13.007281 0.810487,-0.09021 2.294298,-0.584276 3.197339,-0.933671 2.100576,1.082879 13.111991,0.822166 20.590339,1.094174 0.0016,-0.27141 0.265366,-0.820815 -0.02197,-0.811098 C 66.04491,77.110772 58.218028,67.863814 49.851559,57.946429 43.592563,50.527184 36.647864,42.898565 31.014998,35.42004 Z"
       id="path1"
       sodipodi:nodetypes="cccssccscscsccsccssccs" /><path
       style="fill:none;stroke:#000000;stroke-width:1.0911674;stroke-linecap:round;stroke-linejoin:round;stroke-opacity:1"
       d="m 18.477818,41.40026 0.160865,3.244785 C 30.615651,32.531995 52.004764,12.474984 55.51832,9.2938886 61.181926,4.1661876 65.180635,2.2859048 69.229785,2.0100945 L 68.988487,1.7082523 39.058399,1.7928796 C 43.902601,2.7595139 49.958683,7.7741937 44.695817,13.092934 34.265883,23.633599 26.53644,31.585916 18.477818,41.400274 Z"
       id="path2"
       sodipodi:nodetypes="ccscccsc" /><path
       style="fill:none;stroke:#ffffff;stroke-width:1.0911674;stroke-linecap:round;stroke-linejoin:round;stroke-opacity:1"
       d="M 33.724124,1.9391222 Z"
       id="path3" /><path
       style="fill:none;stroke:#000000;stroke-width:1.0911674;stroke-linecap:round;stroke-linejoin:round;stroke-opacity:1"
       d="m 23.387387,42.264683 -3.14225,2.787975 -1.464489,0.02669 0.156402,21.743526 c 0.645404,3.084411 2.483669,6.088061 6.796358,8.92418 -0.637662,-0.480574 -4.500012,0.499442 -7.933827,-6.843206 -3.093058,6.273234 -5.941618,6.085423 -8.8153613,6.563075 5.4228493,-2.961745 6.8773193,-5.954008 7.7347713,-8.950861 l -0.1564,-55.105832 c -0.001,-1.315767 -3.68918,-6.3631938 -8.2039747,-8.2438645 4.1018797,-0.3332572 7.0021837,2.4275951 9.3272217,6.669795 3.469724,-6.3811869 7.44731,-6.8453602 9.938608,-6.696473 0,0 -1.55613,0.4287628 -4.007424,2.1101173 -2.107506,1.4455478 -4.834582,4.3074747 -4.85059,6.0270302 -0.05572,5.952537 -0.08531,26.665829 -0.08531,26.665829 l 4.720483,-5.042363 0.08531,-20.876449 c 0,-2.5216191 4.249086,-9.6117371 10.023921,-9.924651 L 33.501578,1.6960116 1.1414374,1.7238688 C 7.4834891,3.1445143 12.114988,8.324765 12.083503,12.555629 c 0.18741,14.802984 0.315023,34.86256 0.04022,53.42574 -0.658305,7.078318 -5.1481108,9.904837 -10.7576463,11.488799 l 32.7153073,0.07546 C 33.8279,77.411272 33.586519,77.249645 33.312512,77.158191 29.181495,75.779396 24.434579,73.447772 23.444383,66.773694 23.309203,55.239175 23.618642,51.398703 23.36395,42.249166"
       id="path4"
       sodipodi:nodetypes="ccccccccscccssccsccccccsccc" /><path
       style="display:inline;fill:none;stroke:#000000;stroke-width:1.0911674;stroke-linecap:round;stroke-linejoin:round;stroke-opacity:1"
       d="m 48.667632,12.808469 c 0.947527,-1.992746 7.590537,-7.7206803 11.063203,-9.0848953 -2.867882,0.2572351 -6.23888,1.1742213 -8.711187,3.6576899 -0.08581,-1.606523 -3.850758,-3.7414395 -6.122413,-4.1314402 4.917506,3.1048124 4.694976,8.6541946 3.770397,9.5586456 z"
       id="path5"
       sodipodi:nodetypes="ccccc" /></g></svg>
